<?xml version="1.0" encoding="utf-8"?>
<!-- Generator: Adobe Illustrator 18.0.0, SVG Export Plug-In . SVG Version: 6.00 Build 0)  -->
<!DOCTYPE svg PUBLIC "-//W3C//DTD SVG 1.1//EN" "http://www.w3.org/Graphics/SVG/1.1/DTD/svg11.dtd">
<svg version="1.1" id="图层_1" xmlns="http://www.w3.org/2000/svg" xmlns:xlink="http://www.w3.org/1999/xlink" x="0px" y="0px"
	 viewBox="0 0 94.1 22.7" enable-background="new 0 0 94.1 22.7" xml:space="preserve">
<g>
	<g>
		<path fill="#1797EB" d="M4.7,14.4L4.7,14.4c-0.4-0.2-0.9-0.1-1.1,0.3l-3.2,6.1c-0.2,0.4,0,0.9,0.3,1.1l0,0c0.4,0.2,0.9,0,1.1-0.4
			l3.2-6.1C5.3,15.1,5.1,14.6,4.7,14.4z"/>
		<path fill="#1797EB" d="M1.2,22.4C1.2,22.4,1.2,22.4,1.2,22.4c-0.2,0-0.3,0-0.5-0.1c-0.7-0.4-0.9-1-0.6-1.6l3.2-6.1
			c0.3-0.6,1-0.8,1.6-0.5c0.6,0.3,0.8,1,0.5,1.6l-3.2,6.1C2,22.2,1.6,22.4,1.2,22.4z M4.3,14.7c-0.1,0-0.3,0.1-0.4,0.2L0.8,21
			c-0.1,0.3,0,0.5,0.2,0.6c0.1,0,0.1,0,0.2,0l0,0c0.1,0,0.3-0.1,0.4-0.2l3.2-6.1c0.1-0.2,0-0.5-0.2-0.5C4.4,14.7,4.4,14.7,4.3,14.7z
			"/>
	</g>
	<g>
		<path fill="#1797EB" d="M2.5,5.5L2.5,5.5c0.5,0,0.8-0.4,0.8-0.8l0-2.9C3.3,1.4,2.9,1,2.5,1l0,0C2,1,1.7,1.4,1.7,1.8l0,2.9
			C1.7,5.2,2,5.5,2.5,5.5z"/>
		<path fill="#1797EB" d="M2.5,5.9c-0.6,0-1.2-0.5-1.2-1.2l0-2.9c0-0.3,0.1-0.6,0.3-0.8c0.2-0.2,0.5-0.3,0.8-0.3c0,0,0,0,0,0
			c0.7,0,1.2,0.5,1.2,1.2l0,2.9c0,0.3-0.1,0.6-0.3,0.8C3.1,5.8,2.8,5.9,2.5,5.9L2.5,5.9z M2.5,1.4c-0.2,0-0.3,0-0.3,0.1
			C2.1,1.6,2,1.7,2,1.8l0,2.9C2,5,2.2,5.1,2.5,5.1l0,0c0.1,0,0.2,0,0.3-0.1c0.1-0.1,0.1-0.2,0.1-0.3l0-2.9C2.9,1.6,2.7,1.4,2.5,1.4z
			"/>
	</g>
	<g>
		<path fill="#1797EB" d="M21.1,16l-6.2,0l0-4.5l5.8,0c0.4,0,0.8-0.3,0.8-0.8v0c0-0.4-0.4-0.8-0.8-0.8l-5.8,0l0-4.4l6.2,0
			c0.4,0,0.8-0.4,0.8-0.8v0c0-0.4-0.4-0.8-0.8-0.8l-1.8,0l0.6-2c0.1-0.4-0.1-0.9-0.6-1l0,0c-0.4-0.1-0.8,0.1-1,0.5l-0.7,2.3
			c0,0,0,0.1,0,0.2l-7.3,0c0,0,0-0.1,0-0.2L9.7,1.3c-0.1-0.4-0.6-0.6-1-0.5l0,0C8.3,0.9,8,1.4,8.1,1.8l0.6,2L7,3.8
			c-0.4,0-0.8,0.4-0.8,0.8v0c0,0.4,0.4,0.8,0.8,0.8l6.2,0l0,4.4l-5.8,0c-0.4,0-0.8,0.4-0.8,0.8v0c0,0.5,0.4,0.8,0.8,0.8l5.8,0l0,4.5
			l-6.2,0c-0.4,0-0.8,0.4-0.8,0.8v0c0,0.4,0.4,0.8,0.8,0.8l6.2,0l0,3.9c0,0.4,0.4,0.8,0.8,0.8h0c0.5,0,0.8-0.4,0.8-0.8l0-3.9l6.2,0
			c0.4,0,0.8-0.4,0.8-0.8v0C21.9,16.3,21.6,16,21.1,16z"/>
		<path fill="#1797EB" d="M14.1,22.7L14.1,22.7c-0.7,0-1.2-0.5-1.2-1.2l0-3.6l-5.9,0c-0.6,0-1.2-0.5-1.2-1.2c0-0.3,0.1-0.6,0.3-0.8
			s0.5-0.3,0.8-0.3l5.9,0l0-3.8l-5.5,0c-0.7,0-1.2-0.5-1.2-1.2c0-0.7,0.5-1.2,1.2-1.2l5.5,0l0-3.6L7,5.8c-0.6,0-1.2-0.5-1.2-1.2
			C5.9,4.3,6,4,6.2,3.8C6.4,3.6,6.7,3.4,7,3.4l1.2,0L7.8,1.9C7.6,1.2,8,0.6,8.6,0.4c0.1,0,0.2-0.1,0.4-0.1c0.5,0,1,0.4,1.1,0.8
			l0.7,2.2l6.7,0l0.7-2.2c0.2-0.6,0.8-1,1.4-0.8l0.1,0c0.2,0,0.5,0.2,0.6,0.5c0.2,0.3,0.2,0.6,0.1,0.9l-0.5,1.5l1.2,0
			c0.6,0,1.2,0.5,1.2,1.2c0,0.4-0.1,0.6-0.3,0.9c-0.2,0.2-0.5,0.4-0.8,0.4l-5.9,0l0,3.6l5.5,0c0.6,0,1.2,0.5,1.2,1.2
			c0,0.7-0.5,1.2-1.2,1.2l-5.5,0l0,3.8l5.9,0c0.6,0,1.2,0.5,1.2,1.2c0,0.3-0.1,0.6-0.3,0.8c-0.2,0.2-0.5,0.4-0.8,0.4l-5.9,0l0,3.6
			c0,0.3-0.1,0.6-0.3,0.8C14.7,22.6,14.4,22.7,14.1,22.7z M14.1,21.9L14.1,21.9c0.2,0,0.3-0.1,0.3-0.1c0.1-0.1,0.1-0.2,0.1-0.3
			l0-4.3l6.6,0c0.1,0,0.2,0,0.3-0.1c0.1-0.1,0.1-0.2,0.1-0.3c0-0.3-0.2-0.4-0.4-0.4l-6.6,0l0-5.3l6.2,0c0.2,0,0.4-0.2,0.4-0.4
			c0-0.3-0.2-0.5-0.4-0.5l-6.2,0l0-5.1l6.6,0c0.1,0,0.2,0,0.3-0.1c0.1-0.1,0.1-0.2,0.1-0.3c0-0.3-0.2-0.5-0.4-0.5l-2.3,0l0.8-2.5
			c0-0.1,0-0.2,0-0.3c0-0.1-0.1-0.1-0.2-0.2l-0.1-0.1c0,0,0,0,0,0c-0.2,0-0.3,0.1-0.4,0.3l-0.7,2.3v0.4l-0.4,0.1l-7.6,0V3.8
			c0,0,0-0.1,0-0.1L9.3,1.4C9.3,1.2,9,1.1,8.8,1.1C8.6,1.2,8.4,1.5,8.5,1.7l0.8,2.5L7,4.2c-0.1,0-0.2,0-0.3,0.1S6.6,4.5,6.6,4.6
			c0,0.3,0.2,0.5,0.4,0.5l6.6,0l0,5.1l-6.2,0c-0.2,0-0.4,0.2-0.4,0.4c0,0.3,0.2,0.5,0.4,0.5l6.2,0l0,5.3l-6.6,0
			c-0.1,0-0.2,0-0.3,0.1c-0.1,0.1-0.1,0.2-0.1,0.3c0,0.2,0.2,0.4,0.4,0.4l6.6,0l0,4.3C13.7,21.7,13.9,21.9,14.1,21.9z"/>
	</g>
	<g>
		<path fill="#1797EB" d="M2.5,7.7L2.5,7.7C2,7.7,1.7,8,1.7,8.5l0,2.9c0,0.4,0.4,0.8,0.8,0.8l0,0c0.4,0,0.8-0.3,0.8-0.8l0-2.9
			C3.3,8,2.9,7.7,2.5,7.7z"/>
		<path fill="#1797EB" d="M2.5,12.5c-0.6,0-1.2-0.5-1.2-1.1l0-2.9c0-0.3,0.1-0.6,0.3-0.8c0.2-0.2,0.5-0.3,0.8-0.3c0,0,0,0,0,0
			c0.7,0,1.2,0.5,1.2,1.2l0,2.9C3.7,12,3.2,12.5,2.5,12.5L2.5,12.5z M2.5,8.1c-0.2,0-0.3,0-0.3,0.1C2.1,8.2,2,8.3,2,8.5l0,2.9
			c0,0.2,0.2,0.4,0.4,0.4l0,0c0.2,0,0.4-0.2,0.4-0.4l0-2.9C2.9,8.2,2.7,8.1,2.5,8.1z"/>
	</g>
	<g>
		<path fill="#1797EB" d="M36.4,19.6L36.4,19.6c0.5,0,0.8-0.4,0.8-0.8l0-1.7c0-0.5-0.3-0.8-0.8-0.8h0c-0.4,0-0.8,0.3-0.8,0.8l0,1.7
			C35.6,19.2,35.9,19.6,36.4,19.6z"/>
		<path fill="#1797EB" d="M36.4,19.9L36.4,19.9c-0.7,0-1.2-0.5-1.2-1.2l0-1.7c0-0.7,0.5-1.2,1.2-1.2c0.7,0,1.2,0.5,1.2,1.2l0,1.7
			C37.6,19.4,37,19.9,36.4,19.9z M36.4,19.2L36.4,19.2c0.3,0,0.4-0.2,0.4-0.4l0-1.7c0-0.2-0.2-0.4-0.4-0.4c-0.3,0-0.4,0.2-0.4,0.4
			l0,1.7C36,19,36.2,19.2,36.4,19.2z"/>
	</g>
	<g>
		<path fill="#1797EB" d="M27.2,16.1c-0.4-0.1-0.8,0.2-0.9,0.6c-0.1,0.8-0.4,1.5-0.6,2.2c-0.3,0.7-0.5,1.3-0.9,1.9
			c-0.2,0.4-0.1,0.8,0.3,1.1l0,0c0.2,0.1,0.4,0.1,0.6,0.1c0.2-0.1,0.4-0.2,0.5-0.4c0.4-0.6,0.7-1.4,1-2.1c0.3-0.8,0.5-1.6,0.7-2.5
			c0.1-0.2,0-0.4-0.1-0.6C27.6,16.3,27.4,16.2,27.2,16.1z"/>
		<path fill="#1797EB" d="M25.4,22.4c-0.3,0-0.5-0.1-0.6-0.2c-0.5-0.4-0.7-1-0.4-1.5c0.3-0.5,0.6-1.1,0.9-1.9
			c0.2-0.6,0.5-1.3,0.6-2.1c0.1-0.6,0.8-1,1.4-0.9c0.3,0,0.6,0.2,0.8,0.5c0.2,0.2,0.3,0.6,0.2,0.9c-0.2,0.8-0.4,1.7-0.7,2.5
			c-0.3,0.8-0.6,1.5-1,2.1c-0.2,0.3-0.4,0.5-0.7,0.6C25.6,22.4,25.5,22.4,25.4,22.4z M27,16.5c-0.2,0-0.3,0.1-0.4,0.3
			c-0.2,0.8-0.4,1.6-0.7,2.2c-0.3,0.8-0.6,1.4-0.9,2c-0.1,0.2-0.1,0.4,0.1,0.5l0.1,0.1c0,0,0.1,0.1,0.3,0c0.1,0,0.2-0.1,0.3-0.2
			c0.3-0.6,0.7-1.3,0.9-2c0.3-0.8,0.5-1.6,0.7-2.4c0-0.1,0-0.2,0-0.3c-0.1-0.1-0.2-0.2-0.3-0.2L27,16.5z"/>
	</g>
	<g>
		<path fill="#1797EB" d="M40.8,20.7l-7.7,0c-0.4,0-0.7-0.1-1-0.4c-0.3-0.2-0.4-0.6-0.4-0.9l0-3c0-0.5-0.4-0.8-0.8-0.8h0
			c-0.4,0-0.8,0.3-0.8,0.8l0,3c0,0.4,0.1,0.8,0.2,1.1c0.2,0.3,0.4,0.6,0.7,0.9c0.6,0.5,1.3,0.8,2.1,0.8l7.7,0c0.4,0,0.8-0.3,0.8-0.8
			v0C41.6,21.1,41.2,20.7,40.8,20.7z"/>
		<path fill="#1797EB" d="M33.1,22.7c-0.9,0-1.7-0.3-2.4-0.9c-0.3-0.3-0.5-0.6-0.7-1c-0.2-0.5-0.3-0.8-0.3-1.3l0-3
			c0-0.7,0.5-1.2,1.2-1.2c0.7,0,1.2,0.5,1.2,1.2l0,3c0,0.2,0.1,0.5,0.3,0.6c0.2,0.2,0.5,0.3,0.7,0.3l7.7,0c0.6,0,1.2,0.5,1.2,1.1
			c0,0.3-0.1,0.6-0.4,0.9c-0.2,0.2-0.5,0.3-0.8,0.3L33.1,22.7z M30.9,16.1c-0.3,0-0.5,0.2-0.5,0.4l0,3c0,0.4,0.1,0.7,0.2,1
			c0.2,0.3,0.4,0.6,0.6,0.8c0.5,0.5,1.2,0.7,1.9,0.7v0.4l0-0.4l7.7,0c0.1,0,0.2,0,0.3-0.1c0.1-0.1,0.1-0.2,0.1-0.3
			c0-0.2-0.2-0.4-0.4-0.4l-7.7,0c-0.5,0-0.9-0.1-1.2-0.4c-0.4-0.3-0.5-0.7-0.5-1.2l0-3C31.4,16.3,31.2,16.1,30.9,16.1z"/>
	</g>
	<g>
		<path fill="#1797EB" d="M43.4,16.5c-0.2-0.4-0.6-0.6-1-0.5l0,0c-0.4,0.2-0.6,0.6-0.4,1l1.9,4.5c0.1,0.4,0.6,0.6,1,0.4h0
			c0.4-0.2,0.6-0.6,0.4-1.1L43.4,16.5z"/>
		<path fill="#1797EB" d="M44.6,22.5c-0.5,0-0.9-0.3-1.1-0.7l-1.9-4.4c-0.1-0.3-0.1-0.6,0-0.9c0.1-0.3,0.3-0.5,0.6-0.6
			c0.2-0.1,0.3-0.1,0.5-0.1c0.5,0,0.9,0.3,1.1,0.7l1.9,4.4c0.2,0.6,0,1.3-0.6,1.5l-0.1,0C44.8,22.5,44.7,22.5,44.6,22.5z M42.7,16.4
			c-0.1,0-0.1,0-0.2,0c-0.1,0.1-0.2,0.1-0.2,0.2c0,0.1,0,0.2,0,0.3l1.9,4.5c0.1,0.2,0.3,0.3,0.5,0.2l0.1,0c0.2-0.1,0.3-0.3,0.2-0.5
			l-1.9-4.4C43,16.5,42.9,16.4,42.7,16.4z"/>
	</g>
	<g>
		<path fill="#1797EB" d="M44.9,1.7l-3.6,0l0-0.3c0-0.4-0.4-0.8-0.8-0.8h0c-0.5,0-0.8,0.4-0.8,0.8l0,0.3l-9.6,0l0-0.3
			c0-0.4-0.4-0.8-0.8-0.8h0c-0.4,0-0.8,0.4-0.8,0.8l0,0.3l-3.6,0c-0.4,0-0.8,0.4-0.8,0.8v0c0,0.4,0.4,0.8,0.8,0.8l3.6,0l0,0.3
			c0,0.4,0.4,0.8,0.8,0.8h0c0.4,0,0.8-0.4,0.8-0.8l0-0.3l9.6,0l0,0.3c0,0.4,0.3,0.8,0.8,0.8h0c0.4,0,0.8-0.4,0.8-0.8l0-0.3l3.6,0
			c0.4,0,0.8-0.4,0.8-0.8v0C45.7,2,45.3,1.7,44.9,1.7z"/>
		<path fill="#1797EB" d="M29.3,4.8L29.3,4.8c-0.7,0-1.2-0.5-1.2-1.1l-3.3,0c-0.6,0-1.1-0.5-1.1-1.2c0-0.4,0.1-0.7,0.3-0.9
			c0.2-0.2,0.5-0.3,0.8-0.3l3.3,0c0-0.6,0.5-1.1,1.2-1.1c0.7,0,1.2,0.5,1.2,1.1l8.8,0c0-0.6,0.5-1.1,1.2-1.1c0.7,0,1.2,0.5,1.2,1.1
			l3.2,0c0.6,0,1.2,0.5,1.2,1.2c0,0.4-0.1,0.7-0.3,0.9c-0.2,0.2-0.5,0.3-0.8,0.3l-3.2,0c0,0.6-0.6,1.1-1.2,1.1
			c-0.7,0-1.2-0.5-1.2-1.1l-8.8,0C30.5,4.3,29.9,4.8,29.3,4.8z M29.3,4.1L29.3,4.1c0.3,0,0.5-0.2,0.5-0.4l0-0.7L40,3l0,0.7
			c0,0.2,0.2,0.4,0.4,0.4c0.2,0,0.5-0.2,0.5-0.4l0-0.7l4,0c0.1,0,0.2,0,0.3-0.1c0.1-0.1,0.1-0.2,0.1-0.3c0-0.3-0.2-0.5-0.4-0.5l-4,0
			l0-0.7c0-0.2-0.2-0.4-0.4-0.4c-0.3,0-0.5,0.2-0.5,0.4l0,0.7l-10.3,0l0-0.7c0-0.2-0.2-0.4-0.4-0.4C29.2,1,29,1,29,1.1
			c-0.1,0.1-0.1,0.2-0.1,0.3l0,0.7l-4,0c-0.1,0-0.2,0-0.3,0.1c-0.1,0.1-0.1,0.2-0.1,0.3c0,0.3,0.2,0.5,0.4,0.5l4,0l0,0.7
			C28.8,3.9,29,4.1,29.3,4.1z"/>
	</g>
	<g>
		<path fill="#1797EB" d="M44.5,13.9c0.2-0.4,0.2-0.7,0.2-1.2l0-4.1c0-0.4-0.1-0.8-0.2-1.2c-0.3-0.7-0.9-1.3-1.6-1.6
			c-0.3-0.1-0.7-0.2-1.2-0.2l-13.8,0l0.2-0.8c0.1-0.4-0.1-0.8-0.5-1l-0.1,0c-0.4-0.1-0.9,0.1-1,0.5L26,6.2c-0.1,0.2,0,0.5,0.1,0.7
			c0.2,0.2,0.4,0.3,0.6,0.3l4.7,0c-0.5,1.1-1,2-1.7,2.8l-3.5-0.5c-0.4,0-0.8,0.2-0.9,0.7v0c-0.1,0.4,0.2,0.8,0.7,0.9l2.5,0.4
			c-0.8,0.8-1.7,1.7-2.8,2.5c-0.3,0.3-0.4,0.7-0.2,1.1l0,0c0.3,0.4,0.7,0.4,1.1,0.1c1.3-1,2.5-2,3.5-3.3c0,0,0.1-0.1,0.1-0.1
			l3.9,0.6c-0.5,0.6-1.1,1.2-1.8,1.8c-0.3,0.3-0.3,0.8,0,1.1c0.1,0.2,0.3,0.3,0.6,0.3c0.2,0,0.4,0,0.6-0.2c0.5-0.5,1-0.9,1.4-1.4
			c0.4-0.4,0.8-0.9,1.1-1.3l3.5,0.5c0.4,0.1,0.8-0.2,0.9-0.6l0,0c0.1-0.5-0.2-0.9-0.6-0.9l-2.7-0.4c0.7-1.2,1.2-2.5,1.5-3.8
			c0,0,0-0.1,0-0.2l2.9,0c0.4,0,0.7,0.1,1,0.4c0.3,0.3,0.4,0.6,0.4,1l0,4.1c0,0.4-0.1,0.7-0.4,1c-0.3,0.3-0.6,0.4-1,0.4l-1,0
			c-0.4,0-0.8,0.4-0.8,0.8v0c0,0.4,0.3,0.8,0.8,0.8l1,0c0.4,0,0.8-0.1,1.2-0.2C43.7,15.2,44.2,14.6,44.5,13.9z M35.5,11l-3.9-0.6
			c0.6-0.9,1.1-1.9,1.5-2.9l0.1-0.2l4,0C36.8,8.6,36.3,9.8,35.5,11z"/>
		<path fill="#1797EB" d="M40.8,16.1L40.8,16.1c-0.6,0-1.1-0.5-1.1-1.2c0-0.7,0.5-1.2,1.1-1.2l1,0c0.3,0,0.5-0.1,0.7-0.3
			c0.2-0.2,0.3-0.4,0.3-0.7l0-4.1c0-0.3-0.1-0.5-0.3-0.7c-0.2-0.2-0.4-0.3-0.7-0.3l-2.6,0c-0.3,1.2-0.7,2.3-1.3,3.3l2.2,0.3
			c0.6,0.1,1.1,0.7,1,1.4l0,0.1c-0.1,0.6-0.7,1-1.3,0.9l-3.2-0.5c-0.3,0.5-0.7,0.9-1,1.2c-0.4,0.4-0.9,0.9-1.4,1.4
			c-0.2,0.2-0.5,0.3-0.7,0.3l-0.1,0c-0.3,0-0.6-0.2-0.8-0.4c-0.4-0.5-0.4-1.2,0.1-1.6c0.5-0.5,1-0.9,1.3-1.3l-3.1-0.5
			c-1.1,1.3-2.2,2.4-3.6,3.4c-0.5,0.4-1.3,0.3-1.6-0.2c-0.4-0.6-0.3-1.3,0.2-1.7c0.8-0.6,1.5-1.2,2.2-1.9L26,11.5
			c-0.3-0.1-0.6-0.2-0.8-0.5c-0.2-0.2-0.2-0.5-0.2-0.8c0.1-0.6,0.6-1,1.2-1l0.1,0l3.2,0.5c0.4-0.6,0.8-1.3,1.2-2.1l-4.1,0
			c-0.4,0-0.7-0.2-1-0.5c-0.2-0.3-0.3-0.7-0.1-1.1l0.6-1.8c0.1-0.5,0.8-0.9,1.4-0.8l0.1,0c0.6,0.2,0.9,0.8,0.8,1.4l-0.1,0.3l13.3,0
			c0.4,0,0.9,0.1,1.3,0.3c0.8,0.3,1.4,0.9,1.8,1.8c0.2,0.4,0.3,0.9,0.3,1.3l0,4.1c0,0.5-0.1,0.9-0.3,1.3c-0.4,0.8-1,1.4-1.8,1.8
			c-0.3,0.2-0.8,0.3-1.3,0.3L40.8,16.1z M41.8,6.9c0.5,0,0.9,0.2,1.2,0.5c0.3,0.3,0.5,0.7,0.5,1.2l0,4.1c0,0.5-0.2,0.9-0.5,1.2
			c-0.4,0.4-0.8,0.5-1.2,0.5l-1,0c-0.2,0-0.4,0.2-0.4,0.4c0,0.3,0.2,0.4,0.4,0.4l1,0c0.4,0,0.7-0.1,1-0.2c0.7-0.3,1.1-0.7,1.4-1.4
			c0.1-0.3,0.2-0.6,0.2-1l0-4.1c0-0.4-0.1-0.7-0.2-1c-0.3-0.7-0.8-1.1-1.4-1.4c-0.3-0.1-0.7-0.2-1-0.2L27.5,6l0.3-1.2
			c0-0.2-0.1-0.4-0.2-0.5l-0.1,0c-0.2-0.1-0.4,0-0.5,0.2l-0.6,1.9c-0.1,0.1,0,0.3,0,0.4c0.1,0.1,0.2,0.2,0.3,0.2l5.3,0l-0.3,0.5
			c-0.6,1.2-1.1,2.1-1.7,2.9L30,10.5l-3.7-0.6c0,0,0,0,0,0c-0.3,0-0.4,0.2-0.5,0.4c0,0.2,0,0.2,0,0.3c0.1,0.1,0.2,0.2,0.3,0.2
			l3.2,0.5l-0.5,0.5c-0.8,0.9-1.8,1.7-2.8,2.5c-0.2,0.1-0.2,0.4-0.1,0.6c0.2,0.2,0.4,0.2,0.6,0.1c1.3-1,2.4-2,3.5-3.3
			c0,0,0.1-0.1,0.1-0.2l0.1-0.1l4.8,0.7l-0.4,0.5c-0.6,0.7-1.2,1.3-1.8,1.8c-0.1,0.1-0.2,0.4,0,0.6c0.1,0.1,0.2,0.1,0.3,0.2
			c0.1,0,0.2,0,0.3-0.1c0.6-0.5,1-0.9,1.4-1.3c0.3-0.4,0.7-0.8,1.1-1.3l0.1-0.2l3.7,0.6c0.2,0,0.4-0.1,0.5-0.3l0-0.1
			c0-0.2-0.1-0.4-0.4-0.4l-3.3-0.5l0.3-0.5c0.6-1.2,1.1-2.4,1.5-3.8V6.9l0.4-0.1L41.8,6.9z M35.7,11.4L31,10.6l0.3-0.5
			c0.6-0.9,1.1-1.8,1.5-2.8l0.1-0.4l4.8,0l-0.1,0.5c-0.4,1.5-1,2.7-1.7,3.8L35.7,11.4z M32.2,10.1l3.1,0.5c0.5-0.9,1-1.8,1.3-2.9
			l-3.2,0C33.1,8.5,32.7,9.3,32.2,10.1z"/>
	</g>
	<g>
		<path fill="#1797EB" d="M49.5,4.1c0.2,0.4,0.6,0.6,1,0.4l0,0c0.4-0.2,0.6-0.6,0.4-1l-0.8-1.9c-0.2-0.4-0.6-0.6-1-0.4l0,0
			c-0.4,0.1-0.6,0.6-0.4,1L49.5,4.1z"/>
		<path fill="#1797EB" d="M50.2,5L50.2,5c-0.5,0-0.9-0.3-1.1-0.7l-0.8-1.9c-0.1-0.3-0.1-0.6,0-0.9c0.1-0.3,0.4-0.5,0.6-0.6
			c0.7-0.3,1.3,0,1.6,0.6l0.8,1.9c0.2,0.6,0,1.3-0.6,1.5C50.5,4.9,50.4,5,50.2,5z M49.4,1.4c-0.1,0-0.1,0-0.1,0
			C49.1,1.5,49,1.6,49,1.7c0,0.1-0.1,0.2,0,0.3L49.8,4c0.1,0.2,0.3,0.3,0.5,0.2c0.2-0.1,0.3-0.4,0.3-0.6l-0.8-1.9
			C49.7,1.5,49.6,1.4,49.4,1.4z"/>
	</g>
	<g>
		<path fill="#1797EB" d="M56.6,4.5L56.6,4.5c0.5,0.2,0.9,0,1.1-0.4l0.8-1.9c0.2-0.4,0-0.9-0.4-1l0,0c-0.4-0.1-0.9,0-1,0.4l-0.8,1.9
			C56,3.9,56.2,4.3,56.6,4.5z"/>
		<path fill="#1797EB" d="M56.9,5L56.9,5c-0.1,0-0.3,0-0.4-0.1l-0.1-0.1c-0.6-0.3-0.8-0.9-0.6-1.5l0.8-1.9c0.2-0.6,0.9-0.8,1.5-0.6
			l0.1,0.1c0.2,0.1,0.4,0.3,0.6,0.6c0.1,0.3,0.1,0.6,0,0.9L58,4.2C57.8,4.7,57.4,5,56.9,5z M56.8,4.2C57,4.2,57.2,4.1,57.3,4L58.1,2
			c0-0.1,0-0.2,0-0.3c0-0.1-0.1-0.2-0.2-0.2l-0.1,0c-0.2,0-0.4,0-0.5,0.2l-0.8,1.9C56.4,3.8,56.5,4.1,56.8,4.2L56.8,4.2z"/>
	</g>
	<g>
		<path fill="#1797EB" d="M58.5,13.4l-6,0l0.1-0.4c0.1-0.4-0.1-0.9-0.5-1h0c-0.4-0.2-0.9,0-1,0.5l-0.4,1l-1.9,0
			c-0.4,0-0.8,0.4-0.8,0.8v0c0,0.4,0.4,0.8,0.8,0.8l1.3,0l-0.2,0.6c-0.1,0.2-0.1,0.5-0.2,0.7c0,0.2-0.1,0.5-0.1,0.7
			c0,0.6,0.1,1,0.4,1.5c0.3,0.4,0.7,0.8,1.3,1l0.4,0.2c-0.9,0.4-1.9,0.7-3,0.9c-0.4,0.1-0.7,0.5-0.6,0.9c0.1,0.5,0.5,0.7,0.9,0.6
			c1.1-0.2,2-0.5,3-0.8c0.6-0.2,1.2-0.5,1.7-0.8l3.7,1.5c0.2,0.1,0.4,0.1,0.6,0c0.2-0.1,0.4-0.2,0.4-0.4c0.2-0.4,0-0.9-0.4-1
			l-2.7-1.1c0.7-0.6,1.3-1.3,1.8-2c0.4-0.6,0.7-1.4,0.9-2.2c0,0,0-0.1,0-0.1l0.5,0c0.4,0,0.8-0.4,0.8-0.8v0
			C59.3,13.8,59,13.4,58.5,13.4z M55.7,16.6c-0.5,0.7-1.1,1.3-1.8,1.9c-0.1,0.1-0.2,0.1-0.3,0.2L52,18c-0.5-0.2-0.7-0.5-0.7-1
			c0-0.1,0-0.3,0-0.4c0-0.1,0-0.3,0.1-0.4l0.4-1.1l4.5,0C56.2,15.6,56,16.1,55.7,16.6z"/>
		<path fill="#1797EB" d="M49,22.5c-0.6,0-1-0.4-1.1-1c-0.1-0.6,0.3-1.2,0.9-1.3c0.7-0.2,1.4-0.3,2.1-0.6c-0.4-0.2-0.8-0.6-1-0.9
			c-0.3-0.5-0.4-1.1-0.4-1.7c0-0.3,0-0.5,0.1-0.8c0-0.2,0.1-0.4,0.1-0.6l0.1-0.2l-0.8,0c-0.6,0-1.2-0.5-1.2-1.2
			c0-0.3,0.1-0.6,0.3-0.9c0.2-0.2,0.5-0.3,0.8-0.3l1.6,0l0.3-0.7c0.2-0.6,0.8-0.9,1.4-0.7l0.1,0c0.3,0.1,0.5,0.3,0.7,0.6
			c0.1,0.3,0.2,0.5,0.1,0.8l5.5,0c0.6,0,1.2,0.5,1.2,1.2c0,0.4-0.1,0.6-0.3,0.9s-0.5,0.3-0.8,0.3l-0.2,0c-0.2,0.8-0.5,1.6-0.9,2.2
			c-0.4,0.6-0.8,1.2-1.4,1.7l2.1,0.9c0.3,0.1,0.5,0.4,0.6,0.6c0.1,0.3,0.1,0.6,0,0.9c-0.1,0.3-0.3,0.5-0.7,0.6
			c-0.1,0.1-0.3,0.1-0.4,0.1l0,0c-0.2,0-0.3,0-0.5-0.1l-3.5-1.4c-0.5,0.3-1,0.5-1.6,0.7c-1.1,0.4-2,0.7-3,0.9
			C49.1,22.5,49.1,22.5,49,22.5z M50.7,14.7l-0.4,1.1c-0.1,0.3-0.1,0.4-0.1,0.6c0,0.3-0.1,0.4-0.1,0.7c0,0.5,0.1,0.9,0.3,1.3
			c0.2,0.3,0.6,0.6,1.1,0.8l1.2,0.5L51.9,20c-1,0.4-2,0.7-3,0.9c-0.2,0.1-0.4,0.3-0.3,0.5c0,0.2,0.3,0.4,0.5,0.3
			c1-0.2,1.9-0.5,2.9-0.8c0.6-0.2,1.2-0.5,1.7-0.8l0.2-0.1l3.8,1.6c0.1,0.1,0.2,0.1,0.3,0c0.2-0.1,0.2-0.1,0.2-0.2
			c0.1-0.1,0.1-0.2,0-0.3c0-0.1-0.1-0.2-0.2-0.2l-3.3-1.3l0.5-0.4c0.7-0.6,1.3-1.2,1.7-1.9c0.4-0.6,0.7-1.3,0.8-2.1v-0.4l0.4-0.1
			l0.5,0c0.1,0,0.2,0,0.3-0.1c0.1-0.1,0.1-0.2,0.1-0.3c0-0.2-0.2-0.5-0.4-0.5l-6.6,0l0.3-0.9c0-0.1,0-0.2,0-0.3
			c0-0.1-0.1-0.2-0.2-0.2l-0.1,0c-0.2-0.1-0.4,0-0.5,0.2L51,13.8l-2.1,0c-0.1,0-0.2,0-0.3,0.1c-0.1,0.1-0.1,0.2-0.1,0.3
			c0,0.3,0.2,0.5,0.4,0.5L50.7,14.7z M53.6,19.1l-1.8-0.7c-0.8-0.3-0.9-0.9-0.9-1.3c0-0.1,0-0.3,0.1-0.5c0-0.1,0.1-0.3,0.2-0.5
			l0.5-1.3l5.2,0l-0.1,0.5c-0.2,0.7-0.4,1.2-0.7,1.6c-0.5,0.7-1.1,1.4-1.9,2c-0.1,0.1-0.2,0.2-0.3,0.2L53.6,19.1z M52.2,15.4
			l-0.3,0.9c-0.1,0.1-0.1,0.3-0.1,0.3c0,0.2,0,0.3,0,0.4c0,0.3,0.1,0.5,0.5,0.6l1.4,0.6l0.1-0.1c0.7-0.5,1.3-1.1,1.7-1.8
			c0.2-0.3,0.3-0.6,0.5-1L52.2,15.4z"/>
	</g>
	<g>
		<path fill="#1797EB" d="M50.5,7.1c-0.4-0.1-0.9,0.1-1,0.5l-0.9,2.7c-0.1,0.4,0.1,0.9,0.5,1l0,0c0.4,0.1,0.9-0.1,1-0.5l0.9-2.8
			C51.2,7.8,51,7.3,50.5,7.1L50.5,7.1z"/>
		<path fill="#1797EB" d="M49.4,11.8L49.4,11.8c-0.1,0-0.2,0-0.3,0l-0.1,0c-0.5-0.2-0.9-0.8-0.7-1.4l0.9-2.8
			c0.2-0.6,0.8-0.9,1.5-0.7l0.1,0c0.5,0.2,0.9,0.8,0.7,1.4L50.5,11C50.3,11.5,49.9,11.8,49.4,11.8z M50.3,7.5
			c-0.2,0-0.4,0.1-0.4,0.3l-0.9,2.7C48.9,10.7,49,11,49.2,11l0.1,0c0,0,0,0,0.1,0c0.2,0,0.4-0.1,0.4-0.3L50.7,8
			c0.1-0.2-0.1-0.4-0.3-0.5L50.3,7.5C50.4,7.5,50.3,7.5,50.3,7.5z"/>
	</g>
	<g>
		<path fill="#1797EB" d="M48.9,6.8l3.9,0l0,4.3c0,0.4,0.4,0.8,0.8,0.8h0c0.4,0,0.8-0.4,0.8-0.8l0-4.3l3.9,0c0.4,0,0.8-0.4,0.8-0.8
			v0c0-0.4-0.4-0.8-0.8-0.8l-3.9,0l0-3.8c0-0.4-0.4-0.8-0.8-0.8h0c-0.4,0-0.8,0.4-0.8,0.8l0,3.8l-3.9,0c-0.4,0-0.8,0.4-0.8,0.8v0
			C48.1,6.4,48.4,6.8,48.9,6.8z"/>
		<path fill="#1797EB" d="M53.6,12.2L53.6,12.2c-0.7,0-1.2-0.5-1.2-1.2l0-3.9l-3.5,0c-0.6,0-1.2-0.5-1.2-1.2c0-0.4,0.1-0.6,0.3-0.9
			c0.2-0.2,0.5-0.3,0.8-0.3l3.5,0l0-3.4c0-0.3,0.1-0.6,0.3-0.8c0.2-0.2,0.5-0.4,0.8-0.4c0.7,0,1.2,0.5,1.2,1.2l0,3.4l3.5,0
			c0.6,0,1.2,0.5,1.2,1.2c0,0.7-0.5,1.2-1.2,1.2l-3.5,0l0,3.9C54.8,11.7,54.2,12.2,53.6,12.2z M53.5,11.5L53.5,11.5
			c0.3,0,0.5-0.2,0.5-0.4l0-4.7l4.3,0c0.2,0,0.4-0.2,0.4-0.4c0-0.3-0.2-0.5-0.4-0.5l-4.3,0l0-4.2c0-0.2-0.2-0.4-0.4-0.4
			c-0.2,0-0.3,0.1-0.3,0.1c-0.1,0.1-0.1,0.2-0.1,0.3l0,4.2l-4.3,0c-0.1,0-0.2,0-0.3,0.1c-0.1,0.1-0.1,0.2-0.1,0.3
			c0,0.3,0.2,0.5,0.4,0.5l4.3,0l0,4.7C53.1,11.3,53.3,11.5,53.5,11.5z"/>
	</g>
	<g>
		<path fill="#1797EB" d="M68.7,2.9l-6.5,0l0.2-1.3c0-0.4-0.2-0.8-0.7-0.9l-0.1,0c-0.4-0.1-0.8,0.2-0.9,0.6l-0.4,2.3
			c0,0.3,0,0.5,0.2,0.6c0.2,0.2,0.4,0.3,0.6,0.3l5.9,0c-0.4,1.9-0.8,3.6-1.2,5.2c-0.3,1-0.6,1.9-0.9,2.8l-2.7-4.9
			c-0.2-0.4-0.7-0.5-1.1-0.3l0,0c-0.4,0.2-0.5,0.7-0.3,1.1l3.3,6c0,0,0,0.1,0,0.1c-0.6,1.4-1.3,2.6-2.1,3.7
			c-0.6,0.8-1.2,1.6-1.8,2.4c-0.3,0.3-0.2,0.8,0.1,1.1c0.1,0.2,0.4,0.2,0.6,0.2c0.2,0,0.4-0.1,0.6-0.3c0.6-0.7,1.3-1.6,1.9-2.5
			c0.6-0.9,1.2-1.9,1.8-3.1l3,5.4c0.1,0.2,0.3,0.3,0.5,0.4c0.2,0,0.4,0,0.6-0.1c0.4-0.2,0.5-0.7,0.3-1.1l-3.6-6.4
			c0.5-1.2,1-2.6,1.5-4.1c0.5-1.7,0.9-3.5,1.3-5.6V4.5h0.1c0.5,0,0.8-0.4,0.8-0.8v0C69.5,3.3,69.1,2.9,68.7,2.9z"/>
		<path fill="#1797EB" d="M60.8,22.3L60.8,22.3c-0.4,0-0.7-0.1-0.9-0.4c-0.2-0.2-0.3-0.5-0.4-0.8c0-0.3,0.1-0.6,0.3-0.8
			c0.6-0.7,1.2-1.5,1.8-2.3c0.8-1.2,1.5-2.4,2-3.6l-3.2-5.9C60,8,60.2,7.4,60.8,7c0.7-0.4,1.3-0.1,1.6,0.4l2.3,4.2
			c0.2-0.6,0.4-1.3,0.6-2c0.4-1.5,0.8-3.1,1.1-4.7l-5.4,0c-0.3,0-0.6-0.1-0.9-0.4C60,4.3,59.9,4,60,3.6l0.4-2.3
			c0.1-0.6,0.7-1.1,1.3-1l0.1,0c0.2,0,0.5,0.2,0.7,0.4c0.2,0.2,0.3,0.6,0.2,0.9l-0.1,0.9l6.1,0c0.7,0,1.2,0.5,1.2,1.2
			c0,0.3-0.1,0.6-0.3,0.8c-0.2,0.2-0.4,0.3-0.6,0.3c-0.4,2.2-0.9,4-1.3,5.5c-0.4,1.3-0.9,2.7-1.4,4l3.5,6.3c0.3,0.6,0.1,1.2-0.4,1.6
			c-0.3,0.2-0.6,0.2-0.9,0.1c-0.3-0.1-0.5-0.3-0.7-0.5L65,16.9c-0.4,0.8-0.9,1.6-1.5,2.5c-0.6,0.9-1.2,1.7-1.9,2.5
			C61.3,22.2,61.1,22.3,60.8,22.3L60.8,22.3z M64.3,14.7c-0.5,1.2-1.2,2.5-2.1,3.7c-0.6,0.8-1.2,1.7-1.8,2.4
			c-0.1,0.1-0.1,0.2-0.1,0.2c0,0.1,0.1,0.2,0.1,0.3c0.1,0.1,0.2,0.1,0.3,0.1c0.1,0,0.2-0.1,0.3-0.2c0.6-0.7,1.3-1.6,1.8-2.4
			c0.6-1,1.2-2,1.7-3l0.3-0.6l3.3,6c0.1,0.1,0.1,0.2,0.3,0.2c0,0,0,0,0.1,0c0.1,0,0.2,0,0.2-0.1c0.2-0.1,0.3-0.4,0.2-0.6l-3.7-6.6
			l0.1-0.2c0.6-1.3,1-2.7,1.4-4c0.5-1.5,0.9-3.3,1.3-5.5l0-0.4h0.5c0.1,0,0.2-0.1,0.3-0.1C69,4,69.1,3.8,69.1,3.7
			c0-0.3-0.2-0.4-0.4-0.4l-7,0l0.2-1.8c0-0.1,0-0.2-0.1-0.3c0-0.1-0.1-0.1-0.3-0.1l-0.1,0c-0.2,0-0.4,0.2-0.4,0.4l-0.4,2.3
			c0,0.1,0,0.2,0.1,0.4c0.1,0.1,0.2,0.1,0.3,0.1l6.3,0l-0.1,0.4c-0.3,1.8-0.8,3.5-1.2,5.2c-0.3,1-0.6,1.9-0.9,2.8l-0.3,0.8l-3.1-5.6
			c-0.1-0.2-0.4-0.3-0.5-0.2C61,7.8,60.9,8,61,8.2l3.4,6.2l-0.1,0.2C64.3,14.6,64.3,14.6,64.3,14.7z"/>
	</g>
	<g>
		<path fill="#1797EB" d="M56.6,7.1L56.6,7.1c-0.4,0.2-0.6,0.6-0.5,1l0.9,2.8c0.1,0.4,0.6,0.6,1,0.5h0c0.4-0.1,0.6-0.6,0.5-1
			l-0.9-2.7C57.5,7.2,57,7,56.6,7.1z"/>
		<path fill="#1797EB" d="M57.8,11.8c-0.5,0-0.9-0.3-1.1-0.8l-0.9-2.7c-0.1-0.3-0.1-0.6,0.1-0.9c0.1-0.2,0.3-0.4,0.6-0.5l0,0
			l0.1-0.1c0.6-0.2,1.3,0.2,1.5,0.8l0.9,2.7c0.2,0.6-0.1,1.3-0.7,1.5l-0.1,0C58,11.8,57.9,11.8,57.8,11.8z M56.8,7.5L56.8,7.5
			c-0.2,0.1-0.2,0.1-0.3,0.2c0,0.1-0.1,0.2,0,0.3l0.9,2.8c0.1,0.2,0.3,0.3,0.5,0.2l0.1,0c0.1-0.1,0.2-0.3,0.2-0.5l-0.9-2.7
			C57.2,7.6,57,7.5,56.8,7.5z"/>
	</g>
	<g>
		<path fill="#1797EB" d="M73.2,7.5L73.2,7.5c0.5,0,0.8-0.3,0.8-0.8l0-0.5c0-0.7,0.6-1.4,1.4-1.4l14.9,0c0.7,0,1.4,0.7,1.4,1.4
			l0,0.5c0,0.5,0.4,0.8,0.8,0.8h0c0.4,0,0.8-0.3,0.8-0.8l0-0.5c0-1.5-1.1-2.6-2.4-2.9l0.4-1.6c0,0,0-0.1,0-0.2
			c0-0.4-0.2-0.7-0.6-0.8h0c0,0-0.1,0-0.2,0c-0.4,0-0.7,0.2-0.8,0.6l-0.5,1.8c0,0.1,0,0.1,0,0.2l-5.6,0l0-2.1c0-0.4-0.4-0.8-0.8-0.8
			h0c-0.4,0-0.8,0.4-0.8,0.8l0,2.1l-5.6,0c0,0,0-0.1,0-0.2L76,1.3c-0.1-0.4-0.4-0.6-0.8-0.6c0,0-0.1,0-0.2,0h0
			c-0.4,0.1-0.6,0.5-0.6,0.8c0,0,0,0.1,0,0.1l0.4,1.6c-1.3,0.2-2.4,1.4-2.4,2.9l0,0.5C72.4,7.2,72.8,7.5,73.2,7.5z"/>
		<path fill="#1797EB" d="M73.2,7.9L73.2,7.9c-0.7,0-1.2-0.5-1.2-1.2l0-0.5c0-1.5,0.9-2.8,2.3-3.2L74,1.8c0-0.1,0-0.2,0-0.2
			c0-0.5,0.3-1,0.9-1.2l0.3,0c0.6,0,1,0.4,1.2,0.9l0.4,1.7l4.9,0l0-1.7c0-0.3,0.1-0.6,0.3-0.8C82.2,0.1,82.5,0,82.8,0
			C83.5,0,84,0.6,84,1.2l0,1.7l4.9,0l0.4-1.7c0.1-0.5,0.6-0.9,1.1-0.9l0.3,0c0.5,0.1,0.9,0.6,0.9,1.2l0,0.3L91.3,3
			c1.4,0.4,2.3,1.7,2.4,3.2l0,0.5c0,0.3-0.1,0.6-0.3,0.8c-0.2,0.2-0.5,0.3-0.8,0.3c-0.7,0-1.2-0.5-1.2-1.2l0-0.5c0-0.5-0.5-1-1-1
			l-14.9,0c-0.5,0-1,0.5-1,1l0,0.5c0,0.3-0.1,0.6-0.3,0.8C73.8,7.7,73.6,7.9,73.2,7.9z M75.2,1.1c-0.1,0-0.1,0-0.2,0
			c-0.1,0-0.3,0.2-0.3,0.4c0,0,0,0.1,0,0.1l0.5,1.9l-0.4,0.1c-1.2,0.2-2.1,1.3-2.1,2.5l0,0.5c0,0.2,0.2,0.4,0.4,0.4v0.4l0-0.4
			c0.1,0,0.2,0,0.3-0.1c0.1-0.1,0.1-0.1,0.1-0.3l0-0.5c0-1,0.8-1.8,1.7-1.8l14.9,0c0.9,0,1.8,0.8,1.8,1.8l0,0.5
			c0,0.3,0.2,0.4,0.4,0.4c0.2,0,0.3,0,0.3-0.1c0.1-0.1,0.1-0.1,0.1-0.3l0-0.5c0-1.2-0.9-2.3-2.1-2.5l-0.4-0.1l0.5-2.1
			c0-0.2-0.1-0.4-0.3-0.4c-0.1,0-0.1,0-0.1,0c-0.2,0-0.4,0.1-0.4,0.3l-0.5,1.8v0.4l-0.4,0.1l-5.9,0l0-2.5c0-0.2-0.2-0.4-0.4-0.4
			c-0.2,0-0.3,0-0.3,0.1c-0.1,0.1-0.1,0.2-0.1,0.3l0,2.5l-6.3,0V3.3l-0.5-1.8C75.6,1.2,75.4,1.1,75.2,1.1z"/>
	</g>
	<g>
		<path fill="#1797EB" d="M92.9,13.8l-6.9,0c1.1-1.2,2.2-2.7,3.2-4.5c0.1-0.1,0.1-0.2,0.1-0.4c0-0.4-0.3-0.8-0.8-0.8l-13.1,0
			c-0.4,0-0.8,0.3-0.8,0.8c0,0.5,0.4,0.8,0.8,0.8l11.6,0c-0.9,1.6-2,2.9-3.4,4.1l-10.9,0c-0.4,0-0.8,0.4-0.8,0.8v0
			c0,0.4,0.4,0.8,0.8,0.8l10.4,0l0,3.6c0,0.7-0.6,1.4-1.4,1.4l-2.4,0c-0.4,0-0.8,0.3-0.8,0.8v0c0,0.4,0.4,0.8,0.8,0.8l2.4,0
			c1.6,0,3-1.2,3-3l0-3.6l8.1,0c0.4,0,0.8-0.4,0.8-0.8v0C93.7,14.2,93.3,13.8,92.9,13.8z"/>
		<path fill="#1797EB" d="M79.5,22.5L79.5,22.5c-0.6,0-1.2-0.5-1.2-1.2c0-0.7,0.5-1.2,1.2-1.2l2.4,0c0.3,0,0.5-0.1,0.7-0.3
			c0.2-0.2,0.3-0.4,0.3-0.7l0-3.3l-10,0c-0.6,0-1.2-0.5-1.2-1.2c0-0.7,0.5-1.2,1.2-1.2l10.7,0c1.2-1,2.1-2.1,2.9-3.3l-11,0
			c-0.7,0-1.2-0.5-1.2-1.2c0-0.7,0.5-1.2,1.2-1.2l13.1,0c0.7,0,1.2,0.5,1.2,1.2c0,0.2,0,0.4-0.1,0.6c-0.9,1.5-1.8,2.8-2.7,3.9l6,0
			c0.6,0,1.2,0.5,1.2,1.2c0,0.3-0.1,0.6-0.3,0.8c-0.2,0.2-0.5,0.3-0.8,0.3l-7.7,0l0,3.3c0,0.9-0.4,1.8-1,2.4
			c-0.6,0.6-1.5,0.9-2.3,0.9L79.5,22.5z M83.6,15.1l0,4c0,0.4-0.2,0.9-0.5,1.2c-0.3,0.3-0.8,0.5-1.2,0.5l-2.4,0
			c-0.2,0-0.4,0.2-0.4,0.4c0,0.2,0.2,0.4,0.4,0.4l2.4,0c0.7,0,1.3-0.3,1.8-0.7c0.5-0.5,0.8-1.2,0.8-1.9l0-4l8.5,0
			c0.1,0,0.2,0,0.3-0.1c0.1-0.1,0.1-0.2,0.1-0.3c0-0.2-0.2-0.4-0.4-0.4l-7.7,0l0.6-0.6c1.1-1.1,2.1-2.6,3.2-4.4c0-0.1,0-0.1,0-0.2
			c0-0.2-0.2-0.4-0.4-0.4l-13.1,0c-0.2,0-0.4,0.2-0.4,0.4c0,0.2,0.2,0.4,0.4,0.4l12.3,0L87.4,10c-0.9,1.6-2,2.9-3.5,4.2l-0.1,0.1
			l-11,0c-0.2,0-0.4,0.2-0.4,0.4c0,0.3,0.2,0.4,0.4,0.4L83.6,15.1z"/>
	</g>
</g>
</svg>
